<svg width="34" height="27" viewBox="0 0 34 27" fill="none" xmlns="http://www.w3.org/2000/svg">
<path d="M33.5988 9.19115L8.92124 0.826933C8.6056 0.720225 8.25492 0.867885 8.13854 1.15689C8.13828 1.15712 8.13828 1.15736 8.13802 1.15759L5.40622 7.96049C5.2901 8.24949 5.45201 8.57009 5.76791 8.67633H5.76842L8.62888 9.63717L7.99862 11.2081C7.88275 11.4971 8.04466 11.8172 8.36056 11.9234L14.0825 13.8454L13.662 14.8926C13.2798 15.8305 13.6364 16.8863 14.5306 17.4632V20.3087H6.32961C5.93263 19.4785 5.12025 18.8756 4.15005 18.6917V17.5207C4.15005 17.2128 3.87739 16.9631 3.54051 16.9631H1.08317C0.746557 16.9631 0.473633 17.2128 0.473633 17.5207V26.4424C0.473633 26.7505 0.746557 27 1.08317 27H3.54051C3.87739 27 4.15005 26.7505 4.15005 26.4424V25.2716C5.12025 25.0874 5.93263 24.4849 6.32961 23.6544H14.5306V24.212C14.5306 25.1359 15.3492 25.8849 16.359 25.8849C17.3689 25.8849 18.1876 25.1359 18.1876 24.212V18.0348C18.7417 17.7835 19.1696 17.3476 19.3829 16.8164L19.8034 15.7692L24.9529 17.4978C25.0202 17.5205 25.0911 17.532 25.1627 17.532C25.4182 17.532 25.6469 17.3862 25.7351 17.1667L25.9635 16.5973C27.9469 16.9387 29.8571 15.7446 30.2301 13.9303C30.3679 13.2599 30.2784 12.567 29.9735 11.9445L33.6683 10.2089C33.9679 10.0685 34.0863 9.73241 33.9328 9.45839C33.8633 9.33389 33.7451 9.23795 33.6018 9.18951L33.5988 9.19115ZM15.7495 17.9712L16.2541 18.1385C16.4838 18.2139 16.7248 18.2572 16.9685 18.2668V20.3087H15.7495V17.9712ZM2.93123 25.8849H1.69271V18.0784H2.93123V25.8849ZM5.36913 22.5393C5.36811 23.2479 4.88007 23.8795 4.15005 24.1168V19.8466C4.88007 20.0836 5.36811 20.7152 5.36913 21.424V22.5393ZM6.60714 21.424H16.9685V22.5393H6.60714V21.424ZM16.359 24.7697C16.0224 24.7697 15.7495 24.52 15.7495 24.212V23.6544H16.9685V24.212C16.9685 24.52 16.6956 24.7697 16.359 24.7697ZM18.6593 15.3852L18.2388 16.4323C18.0065 17.0099 17.3064 17.3061 16.6746 17.0941L15.5282 16.7099C14.8964 16.4976 14.5721 15.8569 14.8041 15.2787C14.8041 15.2787 14.8041 15.2787 14.8041 15.2784L15.2248 14.232L18.3142 15.2696L18.6593 15.3852ZM24.8012 16.2606L9.35276 11.0707L9.77352 10.0235L18.9276 13.0989C19.1443 13.171 19.3873 13.1258 19.5558 12.9816L21.2663 11.5085L26.0618 13.1199L24.8012 16.2606ZM28.9222 14.0813C28.536 15.0339 27.4972 15.6292 26.392 15.5312L27.3338 13.1841L28.8721 12.4593C29.1128 12.9746 29.1307 13.5545 28.9222 14.0813ZM26.8649 12.1532C26.8327 12.1558 26.8007 12.161 26.7693 12.1687L21.3351 10.3432C21.1184 10.2704 20.8754 10.3156 20.7071 10.4602L18.9946 11.9335L6.76061 7.82336L9.07139 2.06719L31.8763 9.79677L26.8649 12.1532Z" fill="#E3B873"/>
<path d="M12.3984 8.19678L11.8608 9.52581M14.741 8.98304L14.2034 10.3121M17.0143 9.75662L16.4767 11.0857" stroke="#E3B873" stroke-linecap="round"/>
</svg>
